<mxfile host="65bd71144e">
    <diagram name="Página-1" id="TTLl6lbpVSOe3GFvXz6s">
        <mxGraphModel dx="1709" dy="3000" grid="1" gridSize="10" guides="1" tooltips="1" connect="1" arrows="1" fold="1" page="1" pageScale="1" pageWidth="827" pageHeight="1169" math="0" shadow="0">
            <root>
                <mxCell id="0"/>
                <mxCell id="1" parent="0"/>
                <mxCell id="Rp-L3tJBkFsfCjt6rX0w-42" value="" style="verticalLabelPosition=bottom;verticalAlign=top;html=1;shape=mxgraph.basic.rect;fillColor2=none;strokeWidth=1;size=20;indent=5;" parent="1" vertex="1">
                    <mxGeometry x="-710" y="-1160" width="910" height="220" as="geometry"/>
                </mxCell>
                <mxCell id="Rp-L3tJBkFsfCjt6rX0w-1" value="&lt;h2 style=&quot;margin-bottom: 0.28cm; line-height: 108%; font-size: 13px;&quot; class=&quot;western&quot;&gt;&lt;font style=&quot;font-size: 13px;&quot;&gt;Ejercicio:&lt;br&gt;Caso de Uso para Diagrama de Secuencia&lt;/font&gt;&lt;/h2&gt;&lt;p style=&quot;margin-bottom: 0.28cm; line-height: 108%; font-size: 13px;&quot;&gt;&lt;font style=&quot;font-size: 13px;&quot; face=&quot;Calibri, serif&quot;&gt;Descripción:&lt;/font&gt;&lt;/p&gt;&lt;p style=&quot;margin-bottom: 0.28cm; line-height: 108%&quot;&gt;&lt;span style=&quot;font-family: Calibri, serif; background-color: initial;&quot;&gt;Vamos&amp;nbsp;&lt;/span&gt;&lt;span style=&quot;font-family: Calibri, serif; background-color: initial;&quot;&gt;a modelar un caso de uso simple para una aplicación de gestión de&amp;nbsp;&lt;/span&gt;&lt;span style=&quot;font-family: Calibri, serif; background-color: initial;&quot;&gt;biblioteca.&amp;nbsp;&lt;/span&gt;&lt;/p&gt;&lt;p style=&quot;margin-bottom: 0.28cm; line-height: 108%&quot;&gt;&lt;span style=&quot;font-family: Calibri, serif; background-color: initial;&quot;&gt;El&amp;nbsp;&lt;/span&gt;&lt;span style=&quot;font-family: Calibri, serif; background-color: initial;&quot;&gt;de&amp;nbsp;&lt;/span&gt;&lt;span style=&quot;font-family: Calibri, serif; background-color: initial;&quot;&gt;uso se titula &quot;Buscar Libro&quot;. En este escenario, un usuario&amp;nbsp;&lt;/span&gt;&lt;span style=&quot;font-family: Calibri, serif; background-color: initial;&quot;&gt;busca un libro por su título en el&amp;nbsp;&lt;/span&gt;&lt;span style=&quot;font-family: Calibri, serif; background-color: initial;&quot;&gt;sistema.&lt;/span&gt;&lt;/p&gt;&lt;p style=&quot;margin-bottom: 0.28cm; line-height: 108%&quot;&gt;&lt;font face=&quot;Calibri, serif&quot;&gt;Si el libro está disponible, se muestra la información del libro al usuario; si no está&amp;nbsp;&lt;/font&gt;&lt;span style=&quot;font-family: Calibri, serif; background-color: initial;&quot;&gt;disponible,&amp;nbsp;&lt;/span&gt;&lt;span style=&quot;font-family: Calibri, serif; background-color: initial;&quot;&gt;se muestra un mensaje informando que el libro no fue encontrado.&lt;/span&gt;&lt;/p&gt;&lt;p style=&quot;margin-bottom: 0.28cm; line-height: 108%; font-size: 13px;&quot;&gt;&lt;font style=&quot;font-size: 13px;&quot; face=&quot;Calibri, serif&quot;&gt;&lt;b&gt;Paso 1: Descripción del Caso de Uso&lt;/b&gt;&lt;/font&gt;&lt;/p&gt;&lt;p style=&quot;margin-bottom: 0.28cm; line-height: 108%; font-size: 13px;&quot;&gt;&lt;span style=&quot;font-family: Calibri, serif; background-color: initial;&quot;&gt;Caso&amp;nbsp;&lt;/span&gt;&lt;span style=&quot;font-family: Calibri, serif; background-color: initial;&quot;&gt;de Uso: Buscar Libro&lt;/span&gt;&lt;/p&gt;&lt;p style=&quot;margin-bottom: 0.28cm; line-height: 108%&quot;&gt;&lt;font face=&quot;Calibri, serif&quot;&gt;Actor:Usuario&lt;/font&gt;&lt;/p&gt;&lt;p style=&quot;margin-bottom: 0.28cm; line-height: 108%&quot;&gt;&lt;font face=&quot;Calibri, serif&quot;&gt;Propósito: Permitir al usuario buscar libros en la biblioteca por su título.&lt;/font&gt;&lt;/p&gt;&lt;p style=&quot;margin-bottom: 0.28cm; line-height: 108%&quot;&gt;&lt;font face=&quot;Calibri, serif&quot;&gt;Escenario Principal:&lt;/font&gt;&lt;/p&gt;&lt;p style=&quot;margin-bottom: 0.28cm; line-height: 108%&quot;&gt;&lt;font face=&quot;Calibri, serif&quot;&gt;1. El usuario ingresa el título del libro en la aplicación.&lt;/font&gt;&lt;/p&gt;&lt;p style=&quot;margin-bottom: 0.28cm; line-height: 108%&quot;&gt;&lt;font face=&quot;Calibri, serif&quot;&gt;2. La aplicación envía la solicitud de búsqueda al sistema de gestión de biblioteca.&lt;/font&gt;&lt;/p&gt;&lt;p style=&quot;margin-bottom: 0.28cm; line-height: 108%&quot;&gt;&lt;font face=&quot;Calibri, serif&quot;&gt;3. El sistema de gestión de biblioteca busca el libro en su base de datos.&lt;/font&gt;&lt;/p&gt;&lt;p style=&quot;margin-bottom: 0.28cm; line-height: 108%&quot;&gt;&lt;font face=&quot;Calibri, serif&quot;&gt;4. Si el libro es encontrado, el sistema devuelve la información del libro al usuario&lt;/font&gt;&lt;/p&gt;&lt;p style=&quot;margin-bottom: 0.28cm; line-height: 108%&quot;&gt;&lt;font face=&quot;Calibri, serif&quot;&gt;5. Si el libro no es encontrado, el sistema informa al usuario que el libro no está&amp;nbsp;&lt;/font&gt;&lt;span style=&quot;font-family: Calibri, serif; background-color: initial;&quot;&gt;disponible.&lt;/span&gt;&lt;/p&gt;&lt;h2 style=&quot;margin-bottom: 0.28cm; line-height: 108%; font-size: 13px;&quot; class=&quot;western&quot;&gt;&lt;font style=&quot;font-size: 13px;&quot;&gt;Paso 2: Diagrama de Secuencia&lt;/font&gt;&lt;/h2&gt;&lt;p style=&quot;margin-bottom: 0.28cm; line-height: 108%; font-size: 13px;&quot;&gt;&lt;font style=&quot;font-size: 13px;&quot; face=&quot;Calibri, serif&quot;&gt;El diagrama de secuencia muestra cómo interactúan los objetos del sistema durante el&amp;nbsp;&lt;/font&gt;&lt;span style=&quot;font-family: Calibri, serif; background-color: initial;&quot;&gt;proceso &lt;/span&gt;&lt;span style=&quot;font-family: Calibri, serif; background-color: initial;&quot;&gt;de búsqueda de un libro.&lt;/span&gt;&lt;/p&gt;&lt;p style=&quot;margin-bottom: 0.28cm; line-height: 108%&quot;&gt;&lt;font face=&quot;Calibri, serif&quot;&gt;Participantes en el Diagrama:&lt;/font&gt;&lt;/p&gt;&lt;p style=&quot;margin-bottom: 0.28cm; line-height: 108%&quot;&gt;● &lt;font face=&quot;Calibri, serif&quot;&gt;Usuario: Inicia la búsqueda del libro.&lt;/font&gt;&lt;/p&gt;&lt;p style=&quot;margin-bottom: 0.28cm; line-height: 108%&quot;&gt;● &lt;font face=&quot;Calibri, serif&quot;&gt;Interfaz de Usuario: Interfaz de la aplicación donde el usuario ingresa el título del&amp;nbsp;&lt;/font&gt;&lt;span style=&quot;font-family: Calibri, serif; background-color: initial;&quot;&gt;libro.&lt;/span&gt;&lt;/p&gt;&lt;p style=&quot;margin-bottom: 0.28cm; line-height: 108%&quot;&gt;● &lt;font face=&quot;Calibri, serif&quot;&gt;Sistema de Gestión de Biblioteca: Sistema que realiza la búsqueda en la base de&amp;nbsp;&lt;/font&gt;&lt;span style=&quot;font-family: Calibri, serif; background-color: initial;&quot;&gt;datos.&lt;/span&gt;&lt;/p&gt;&lt;p style=&quot;margin-bottom: 0.28cm; line-height: 108%&quot;&gt;● &lt;font face=&quot;Calibri, serif&quot;&gt;Base de Datos: Almacena la información de los libros.&lt;/font&gt;&lt;/p&gt;" style="text;html=1;align=left;verticalAlign=middle;resizable=0;points=[];autosize=1;strokeColor=none;fillColor=none;" parent="1" vertex="1">
                    <mxGeometry x="-827" y="-2330" width="810" height="600" as="geometry"/>
                </mxCell>
                <mxCell id="Rp-L3tJBkFsfCjt6rX0w-4" value="" style="edgeStyle=orthogonalEdgeStyle;rounded=0;orthogonalLoop=1;jettySize=auto;html=1;" parent="1" source="Rp-L3tJBkFsfCjt6rX0w-2" target="Rp-L3tJBkFsfCjt6rX0w-3" edge="1">
                    <mxGeometry relative="1" as="geometry"/>
                </mxCell>
                <mxCell id="Rp-L3tJBkFsfCjt6rX0w-2" value="Usuario" style="shape=umlActor;verticalLabelPosition=bottom;verticalAlign=top;html=1;outlineConnect=0;" parent="1" vertex="1">
                    <mxGeometry x="-720" y="-1610" width="30" height="60" as="geometry"/>
                </mxCell>
                <mxCell id="Rp-L3tJBkFsfCjt6rX0w-6" style="edgeStyle=orthogonalEdgeStyle;rounded=0;orthogonalLoop=1;jettySize=auto;html=1;entryX=0;entryY=0.5;entryDx=0;entryDy=0;" parent="1" source="Rp-L3tJBkFsfCjt6rX0w-3" target="Rp-L3tJBkFsfCjt6rX0w-5" edge="1">
                    <mxGeometry relative="1" as="geometry"/>
                </mxCell>
                <mxCell id="Rp-L3tJBkFsfCjt6rX0w-3" value="Ingresar titulo del libro en la app" style="ellipse;whiteSpace=wrap;html=1;" parent="1" vertex="1">
                    <mxGeometry x="-610" y="-1620" width="120" height="80" as="geometry"/>
                </mxCell>
                <mxCell id="Rp-L3tJBkFsfCjt6rX0w-8" style="edgeStyle=orthogonalEdgeStyle;rounded=0;orthogonalLoop=1;jettySize=auto;html=1;" parent="1" source="Rp-L3tJBkFsfCjt6rX0w-5" target="Rp-L3tJBkFsfCjt6rX0w-9" edge="1">
                    <mxGeometry relative="1" as="geometry">
                        <mxPoint x="-170" y="-1580" as="targetPoint"/>
                    </mxGeometry>
                </mxCell>
                <mxCell id="Rp-L3tJBkFsfCjt6rX0w-5" value="La aplicacion envía la solicitud al sistema" style="ellipse;whiteSpace=wrap;html=1;" parent="1" vertex="1">
                    <mxGeometry x="-400" y="-1620" width="120" height="80" as="geometry"/>
                </mxCell>
                <mxCell id="Rp-L3tJBkFsfCjt6rX0w-11" style="edgeStyle=orthogonalEdgeStyle;rounded=0;orthogonalLoop=1;jettySize=auto;html=1;" parent="1" source="Rp-L3tJBkFsfCjt6rX0w-9" target="Rp-L3tJBkFsfCjt6rX0w-13" edge="1">
                    <mxGeometry relative="1" as="geometry">
                        <mxPoint x="70" y="-1650" as="targetPoint"/>
                    </mxGeometry>
                </mxCell>
                <mxCell id="Rp-L3tJBkFsfCjt6rX0w-12" style="edgeStyle=orthogonalEdgeStyle;rounded=0;orthogonalLoop=1;jettySize=auto;html=1;" parent="1" source="Rp-L3tJBkFsfCjt6rX0w-9" target="Rp-L3tJBkFsfCjt6rX0w-14" edge="1">
                    <mxGeometry relative="1" as="geometry">
                        <mxPoint x="70" y="-1500" as="targetPoint"/>
                    </mxGeometry>
                </mxCell>
                <mxCell id="Rp-L3tJBkFsfCjt6rX0w-9" value="El sistema busca el libro en la bbdd" style="ellipse;whiteSpace=wrap;html=1;" parent="1" vertex="1">
                    <mxGeometry x="-190" y="-1620" width="120" height="80" as="geometry"/>
                </mxCell>
                <mxCell id="Rp-L3tJBkFsfCjt6rX0w-13" value="El sistema devuelve la informacion del libro" style="ellipse;whiteSpace=wrap;html=1;" parent="1" vertex="1">
                    <mxGeometry y="-1740" width="120" height="80" as="geometry"/>
                </mxCell>
                <mxCell id="Rp-L3tJBkFsfCjt6rX0w-19" style="edgeStyle=orthogonalEdgeStyle;rounded=0;orthogonalLoop=1;jettySize=auto;html=1;dashed=1;dashPattern=8 8;endArrow=none;endFill=0;entryX=0.5;entryY=1;entryDx=0;entryDy=0;entryPerimeter=0;" parent="1" source="Rp-L3tJBkFsfCjt6rX0w-15" target="Rp-L3tJBkFsfCjt6rX0w-45" edge="1">
                    <mxGeometry relative="1" as="geometry">
                        <mxPoint x="-679.9999999999998" y="-720" as="targetPoint"/>
                        <Array as="points">
                            <mxPoint x="-680" y="-1060"/>
                            <mxPoint x="-680" y="-1060"/>
                        </Array>
                    </mxGeometry>
                </mxCell>
                <mxCell id="Rp-L3tJBkFsfCjt6rX0w-14" value="El sistema informa de libro no disponible" style="ellipse;whiteSpace=wrap;html=1;" parent="1" vertex="1">
                    <mxGeometry y="-1490" width="120" height="80" as="geometry"/>
                </mxCell>
                <mxCell id="Rp-L3tJBkFsfCjt6rX0w-15" value="Usuario" style="rounded=0;whiteSpace=wrap;html=1;" parent="1" vertex="1">
                    <mxGeometry x="-740" y="-1320" width="120" height="60" as="geometry"/>
                </mxCell>
                <mxCell id="Rp-L3tJBkFsfCjt6rX0w-16" value="Interfaz de usuario" style="rounded=0;whiteSpace=wrap;html=1;" parent="1" vertex="1">
                    <mxGeometry x="-460" y="-1320" width="120" height="60" as="geometry"/>
                </mxCell>
                <mxCell id="Rp-L3tJBkFsfCjt6rX0w-17" value="Sistema de gestión biblioteca" style="rounded=0;whiteSpace=wrap;html=1;" parent="1" vertex="1">
                    <mxGeometry x="-180" y="-1320" width="120" height="60" as="geometry"/>
                </mxCell>
                <mxCell id="Rp-L3tJBkFsfCjt6rX0w-22" style="edgeStyle=orthogonalEdgeStyle;rounded=0;orthogonalLoop=1;jettySize=auto;html=1;dashed=1;dashPattern=8 8;endArrow=none;endFill=0;exitX=0.5;exitY=1;exitDx=0;exitDy=0;" parent="1" source="Rp-L3tJBkFsfCjt6rX0w-34" target="Rp-L3tJBkFsfCjt6rX0w-50" edge="1">
                    <mxGeometry relative="1" as="geometry">
                        <mxPoint x="161" y="-710" as="targetPoint"/>
                        <mxPoint x="-690" y="-1230" as="sourcePoint"/>
                        <Array as="points">
                            <mxPoint x="161" y="-1060"/>
                            <mxPoint x="161" y="-1060"/>
                        </Array>
                    </mxGeometry>
                </mxCell>
                <mxCell id="Rp-L3tJBkFsfCjt6rX0w-18" value="BBDD" style="rounded=0;whiteSpace=wrap;html=1;" parent="1" vertex="1">
                    <mxGeometry x="101" y="-1320" width="120" height="60" as="geometry"/>
                </mxCell>
                <mxCell id="Rp-L3tJBkFsfCjt6rX0w-26" style="edgeStyle=orthogonalEdgeStyle;rounded=0;orthogonalLoop=1;jettySize=auto;html=1;curved=0;" parent="1" source="Rp-L3tJBkFsfCjt6rX0w-23" target="Rp-L3tJBkFsfCjt6rX0w-24" edge="1">
                    <mxGeometry relative="1" as="geometry">
                        <Array as="points">
                            <mxPoint x="-540" y="-1200"/>
                            <mxPoint x="-540" y="-1200"/>
                        </Array>
                    </mxGeometry>
                </mxCell>
                <mxCell id="Rp-L3tJBkFsfCjt6rX0w-27" value="Ingresar titulo de libro a buscar" style="edgeLabel;html=1;align=center;verticalAlign=middle;resizable=0;points=[];" parent="Rp-L3tJBkFsfCjt6rX0w-26" vertex="1" connectable="0">
                    <mxGeometry x="-0.1799" relative="1" as="geometry">
                        <mxPoint x="14" y="1" as="offset"/>
                    </mxGeometry>
                </mxCell>
                <mxCell id="Rp-L3tJBkFsfCjt6rX0w-23" value="" style="html=1;points=[[0,0,0,0,5],[0,1,0,0,-5],[1,0,0,0,5],[1,1,0,0,-5]];perimeter=orthogonalPerimeter;outlineConnect=0;targetShapes=umlLifeline;portConstraint=eastwest;newEdgeStyle={&quot;curved&quot;:0,&quot;rounded&quot;:0};" parent="1" vertex="1">
                    <mxGeometry x="-685" y="-1210" width="10" height="100" as="geometry"/>
                </mxCell>
                <mxCell id="Rp-L3tJBkFsfCjt6rX0w-25" value="" style="edgeStyle=orthogonalEdgeStyle;rounded=0;orthogonalLoop=1;jettySize=auto;html=1;dashed=1;dashPattern=8 8;endArrow=none;endFill=0;" parent="1" source="Rp-L3tJBkFsfCjt6rX0w-16" target="Rp-L3tJBkFsfCjt6rX0w-24" edge="1">
                    <mxGeometry relative="1" as="geometry">
                        <mxPoint x="-400.1900000000001" y="-1140" as="targetPoint"/>
                        <mxPoint x="-400.1899999999999" y="-1290" as="sourcePoint"/>
                        <Array as="points">
                            <mxPoint x="-400" y="-1190"/>
                            <mxPoint x="-400" y="-1190"/>
                        </Array>
                    </mxGeometry>
                </mxCell>
                <mxCell id="Rp-L3tJBkFsfCjt6rX0w-24" value="" style="html=1;points=[[0,0,0,0,5],[0,1,0,0,-5],[1,0,0,0,5],[1,1,0,0,-5]];perimeter=orthogonalPerimeter;outlineConnect=0;targetShapes=umlLifeline;portConstraint=eastwest;newEdgeStyle={&quot;curved&quot;:0,&quot;rounded&quot;:0};" parent="1" vertex="1">
                    <mxGeometry x="-405" y="-1210" width="10" height="100" as="geometry"/>
                </mxCell>
                <mxCell id="Rp-L3tJBkFsfCjt6rX0w-28" value="" style="html=1;points=[[0,0,0,0,5],[0,1,0,0,-5],[1,0,0,0,5],[1,1,0,0,-5]];perimeter=orthogonalPerimeter;outlineConnect=0;targetShapes=umlLifeline;portConstraint=eastwest;newEdgeStyle={&quot;curved&quot;:0,&quot;rounded&quot;:0};" parent="1" vertex="1">
                    <mxGeometry x="-125" y="-1210" width="10" height="90" as="geometry"/>
                </mxCell>
                <mxCell id="Rp-L3tJBkFsfCjt6rX0w-30" style="edgeStyle=orthogonalEdgeStyle;rounded=0;orthogonalLoop=1;jettySize=auto;html=1;curved=0;" parent="1" source="Rp-L3tJBkFsfCjt6rX0w-24" target="Rp-L3tJBkFsfCjt6rX0w-28" edge="1">
                    <mxGeometry relative="1" as="geometry">
                        <mxPoint x="-395" y="-1180" as="sourcePoint"/>
                        <mxPoint x="-125" y="-1180" as="targetPoint"/>
                        <Array as="points">
                            <mxPoint x="-260" y="-1190"/>
                            <mxPoint x="-260" y="-1190"/>
                        </Array>
                    </mxGeometry>
                </mxCell>
                <mxCell id="Rp-L3tJBkFsfCjt6rX0w-31" value="Enviar titulo del libro" style="edgeLabel;html=1;align=center;verticalAlign=middle;resizable=0;points=[];" parent="Rp-L3tJBkFsfCjt6rX0w-30" vertex="1" connectable="0">
                    <mxGeometry x="-0.1799" relative="1" as="geometry">
                        <mxPoint x="14" y="1" as="offset"/>
                    </mxGeometry>
                </mxCell>
                <mxCell id="Rp-L3tJBkFsfCjt6rX0w-32" style="edgeStyle=orthogonalEdgeStyle;rounded=0;orthogonalLoop=1;jettySize=auto;html=1;curved=0;" parent="1" source="Rp-L3tJBkFsfCjt6rX0w-28" target="Rp-L3tJBkFsfCjt6rX0w-34" edge="1">
                    <mxGeometry relative="1" as="geometry">
                        <mxPoint x="-115" y="-1190" as="sourcePoint"/>
                        <mxPoint x="155" y="-1190" as="targetPoint"/>
                        <Array as="points">
                            <mxPoint x="20" y="-1180"/>
                            <mxPoint x="20" y="-1180"/>
                        </Array>
                    </mxGeometry>
                </mxCell>
                <mxCell id="Rp-L3tJBkFsfCjt6rX0w-33" value="Buscar en la BBDD" style="edgeLabel;html=1;align=center;verticalAlign=middle;resizable=0;points=[];" parent="Rp-L3tJBkFsfCjt6rX0w-32" vertex="1" connectable="0">
                    <mxGeometry x="-0.1799" relative="1" as="geometry">
                        <mxPoint x="14" y="1" as="offset"/>
                    </mxGeometry>
                </mxCell>
                <mxCell id="Rp-L3tJBkFsfCjt6rX0w-35" value="" style="edgeStyle=orthogonalEdgeStyle;rounded=0;orthogonalLoop=1;jettySize=auto;html=1;dashed=1;dashPattern=8 8;endArrow=none;endFill=0;exitX=0.5;exitY=1;exitDx=0;exitDy=0;" parent="1" source="Rp-L3tJBkFsfCjt6rX0w-18" target="Rp-L3tJBkFsfCjt6rX0w-34" edge="1">
                    <mxGeometry relative="1" as="geometry">
                        <mxPoint x="161" y="-710" as="targetPoint"/>
                        <mxPoint x="161" y="-1260" as="sourcePoint"/>
                        <Array as="points">
                            <mxPoint x="161" y="-1190"/>
                            <mxPoint x="161" y="-1190"/>
                        </Array>
                    </mxGeometry>
                </mxCell>
                <mxCell id="Rp-L3tJBkFsfCjt6rX0w-36" style="edgeStyle=orthogonalEdgeStyle;rounded=0;orthogonalLoop=1;jettySize=auto;html=1;curved=0;dashed=1;" parent="1" source="Rp-L3tJBkFsfCjt6rX0w-34" target="Rp-L3tJBkFsfCjt6rX0w-28" edge="1">
                    <mxGeometry relative="1" as="geometry">
                        <Array as="points">
                            <mxPoint x="10" y="-1140"/>
                            <mxPoint x="10" y="-1140"/>
                        </Array>
                    </mxGeometry>
                </mxCell>
                <mxCell id="Rp-L3tJBkFsfCjt6rX0w-37" value="Devolver informacion del libro" style="edgeLabel;html=1;align=center;verticalAlign=middle;resizable=0;points=[];" parent="Rp-L3tJBkFsfCjt6rX0w-36" vertex="1" connectable="0">
                    <mxGeometry x="0.0996" y="2" relative="1" as="geometry">
                        <mxPoint y="-3" as="offset"/>
                    </mxGeometry>
                </mxCell>
                <mxCell id="Rp-L3tJBkFsfCjt6rX0w-34" value="" style="html=1;points=[[0,0,0,0,5],[0,1,0,0,-5],[1,0,0,0,5],[1,1,0,0,-5]];perimeter=orthogonalPerimeter;outlineConnect=0;targetShapes=umlLifeline;portConstraint=eastwest;newEdgeStyle={&quot;curved&quot;:0,&quot;rounded&quot;:0};" parent="1" vertex="1">
                    <mxGeometry x="156" y="-1210" width="10" height="80" as="geometry"/>
                </mxCell>
                <mxCell id="Rp-L3tJBkFsfCjt6rX0w-38" style="edgeStyle=orthogonalEdgeStyle;rounded=0;orthogonalLoop=1;jettySize=auto;html=1;curved=0;dashed=1;" parent="1" source="Rp-L3tJBkFsfCjt6rX0w-28" target="Rp-L3tJBkFsfCjt6rX0w-24" edge="1">
                    <mxGeometry relative="1" as="geometry">
                        <mxPoint x="-124" y="-1130" as="sourcePoint"/>
                        <mxPoint x="-395" y="-1130" as="targetPoint"/>
                        <Array as="points">
                            <mxPoint x="-260" y="-1130"/>
                            <mxPoint x="-260" y="-1130"/>
                        </Array>
                    </mxGeometry>
                </mxCell>
                <mxCell id="Rp-L3tJBkFsfCjt6rX0w-39" value="Pasar la informacion del libro" style="edgeLabel;html=1;align=center;verticalAlign=middle;resizable=0;points=[];" parent="Rp-L3tJBkFsfCjt6rX0w-38" vertex="1" connectable="0">
                    <mxGeometry x="0.0996" y="2" relative="1" as="geometry">
                        <mxPoint x="10" y="-3" as="offset"/>
                    </mxGeometry>
                </mxCell>
                <mxCell id="Rp-L3tJBkFsfCjt6rX0w-40" style="edgeStyle=orthogonalEdgeStyle;rounded=0;orthogonalLoop=1;jettySize=auto;html=1;curved=0;dashed=1;" parent="1" source="Rp-L3tJBkFsfCjt6rX0w-24" target="Rp-L3tJBkFsfCjt6rX0w-23" edge="1">
                    <mxGeometry relative="1" as="geometry">
                        <mxPoint x="-115" y="-1120" as="sourcePoint"/>
                        <mxPoint x="-385" y="-1120" as="targetPoint"/>
                        <Array as="points">
                            <mxPoint x="-550" y="-1120"/>
                            <mxPoint x="-550" y="-1120"/>
                        </Array>
                    </mxGeometry>
                </mxCell>
                <mxCell id="Rp-L3tJBkFsfCjt6rX0w-41" value="Mostrar la información del libro" style="edgeLabel;html=1;align=center;verticalAlign=middle;resizable=0;points=[];" parent="Rp-L3tJBkFsfCjt6rX0w-40" vertex="1" connectable="0">
                    <mxGeometry x="0.0996" y="2" relative="1" as="geometry">
                        <mxPoint x="10" y="-3" as="offset"/>
                    </mxGeometry>
                </mxCell>
                <mxCell id="Rp-L3tJBkFsfCjt6rX0w-43" value="" style="edgeStyle=none;orthogonalLoop=1;jettySize=auto;html=1;rounded=0;endArrow=none;endFill=0;dashed=1;dashPattern=1 1;" parent="1" edge="1">
                    <mxGeometry width="100" relative="1" as="geometry">
                        <mxPoint x="-705" y="-1100" as="sourcePoint"/>
                        <mxPoint x="225" y="-1100" as="targetPoint"/>
                        <Array as="points"/>
                    </mxGeometry>
                </mxCell>
                <mxCell id="Rp-L3tJBkFsfCjt6rX0w-45" value="" style="html=1;points=[[0,0,0,0,5],[0,1,0,0,-5],[1,0,0,0,5],[1,1,0,0,-5]];perimeter=orthogonalPerimeter;outlineConnect=0;targetShapes=umlLifeline;portConstraint=eastwest;newEdgeStyle={&quot;curved&quot;:0,&quot;rounded&quot;:0};" parent="1" vertex="1">
                    <mxGeometry x="-685" y="-1070" width="10" height="100" as="geometry"/>
                </mxCell>
                <mxCell id="Rp-L3tJBkFsfCjt6rX0w-46" value="" style="html=1;points=[[0,0,0,0,5],[0,1,0,0,-5],[1,0,0,0,5],[1,1,0,0,-5]];perimeter=orthogonalPerimeter;outlineConnect=0;targetShapes=umlLifeline;portConstraint=eastwest;newEdgeStyle={&quot;curved&quot;:0,&quot;rounded&quot;:0};" parent="1" vertex="1">
                    <mxGeometry x="-405" y="-1070" width="10" height="100" as="geometry"/>
                </mxCell>
                <mxCell id="Rp-L3tJBkFsfCjt6rX0w-47" value="" style="html=1;points=[[0,0,0,0,5],[0,1,0,0,-5],[1,0,0,0,5],[1,1,0,0,-5]];perimeter=orthogonalPerimeter;outlineConnect=0;targetShapes=umlLifeline;portConstraint=eastwest;newEdgeStyle={&quot;curved&quot;:0,&quot;rounded&quot;:0};" parent="1" vertex="1">
                    <mxGeometry x="-125" y="-1070" width="10" height="90" as="geometry"/>
                </mxCell>
                <mxCell id="Rp-L3tJBkFsfCjt6rX0w-48" style="edgeStyle=orthogonalEdgeStyle;rounded=0;orthogonalLoop=1;jettySize=auto;html=1;curved=0;dashed=1;" parent="1" source="Rp-L3tJBkFsfCjt6rX0w-50" target="Rp-L3tJBkFsfCjt6rX0w-47" edge="1">
                    <mxGeometry relative="1" as="geometry">
                        <Array as="points">
                            <mxPoint x="10" y="-1000"/>
                            <mxPoint x="10" y="-1000"/>
                        </Array>
                    </mxGeometry>
                </mxCell>
                <mxCell id="Rp-L3tJBkFsfCjt6rX0w-49" value="Informar libro no disponible" style="edgeLabel;html=1;align=center;verticalAlign=middle;resizable=0;points=[];" parent="Rp-L3tJBkFsfCjt6rX0w-48" vertex="1" connectable="0">
                    <mxGeometry x="0.0996" y="2" relative="1" as="geometry">
                        <mxPoint x="1" y="-3" as="offset"/>
                    </mxGeometry>
                </mxCell>
                <mxCell id="Rp-L3tJBkFsfCjt6rX0w-50" value="" style="html=1;points=[[0,0,0,0,5],[0,1,0,0,-5],[1,0,0,0,5],[1,1,0,0,-5]];perimeter=orthogonalPerimeter;outlineConnect=0;targetShapes=umlLifeline;portConstraint=eastwest;newEdgeStyle={&quot;curved&quot;:0,&quot;rounded&quot;:0};" parent="1" vertex="1">
                    <mxGeometry x="156" y="-1070" width="10" height="80" as="geometry"/>
                </mxCell>
                <mxCell id="Rp-L3tJBkFsfCjt6rX0w-51" style="edgeStyle=orthogonalEdgeStyle;rounded=0;orthogonalLoop=1;jettySize=auto;html=1;curved=0;dashed=1;" parent="1" source="Rp-L3tJBkFsfCjt6rX0w-47" target="Rp-L3tJBkFsfCjt6rX0w-46" edge="1">
                    <mxGeometry relative="1" as="geometry">
                        <mxPoint x="-124" y="-990" as="sourcePoint"/>
                        <mxPoint x="-395" y="-990" as="targetPoint"/>
                        <Array as="points">
                            <mxPoint x="-260" y="-990"/>
                            <mxPoint x="-260" y="-990"/>
                        </Array>
                    </mxGeometry>
                </mxCell>
                <mxCell id="Rp-L3tJBkFsfCjt6rX0w-52" value="Pasar error" style="edgeLabel;html=1;align=center;verticalAlign=middle;resizable=0;points=[];" parent="Rp-L3tJBkFsfCjt6rX0w-51" vertex="1" connectable="0">
                    <mxGeometry x="0.0996" y="2" relative="1" as="geometry">
                        <mxPoint x="10" y="-3" as="offset"/>
                    </mxGeometry>
                </mxCell>
                <mxCell id="Rp-L3tJBkFsfCjt6rX0w-53" style="edgeStyle=orthogonalEdgeStyle;rounded=0;orthogonalLoop=1;jettySize=auto;html=1;curved=0;dashed=1;" parent="1" source="Rp-L3tJBkFsfCjt6rX0w-46" target="Rp-L3tJBkFsfCjt6rX0w-45" edge="1">
                    <mxGeometry relative="1" as="geometry">
                        <mxPoint x="-115" y="-980" as="sourcePoint"/>
                        <mxPoint x="-385" y="-980" as="targetPoint"/>
                        <Array as="points">
                            <mxPoint x="-550" y="-980"/>
                            <mxPoint x="-550" y="-980"/>
                        </Array>
                    </mxGeometry>
                </mxCell>
                <mxCell id="Rp-L3tJBkFsfCjt6rX0w-54" value="Mostrar mensaje de error" style="edgeLabel;html=1;align=center;verticalAlign=middle;resizable=0;points=[];" parent="Rp-L3tJBkFsfCjt6rX0w-53" vertex="1" connectable="0">
                    <mxGeometry x="0.0996" y="2" relative="1" as="geometry">
                        <mxPoint x="10" y="-3" as="offset"/>
                    </mxGeometry>
                </mxCell>
                <mxCell id="Rp-L3tJBkFsfCjt6rX0w-56" value="" style="edgeStyle=orthogonalEdgeStyle;rounded=0;orthogonalLoop=1;jettySize=auto;html=1;dashed=1;dashPattern=8 8;endArrow=none;endFill=0;" parent="1" source="Rp-L3tJBkFsfCjt6rX0w-24" target="Rp-L3tJBkFsfCjt6rX0w-46" edge="1">
                    <mxGeometry relative="1" as="geometry">
                        <mxPoint x="-390" y="-1200" as="targetPoint"/>
                        <mxPoint x="-390" y="-1250" as="sourcePoint"/>
                        <Array as="points">
                            <mxPoint x="-400" y="-1100"/>
                            <mxPoint x="-400" y="-1100"/>
                        </Array>
                    </mxGeometry>
                </mxCell>
                <mxCell id="Rp-L3tJBkFsfCjt6rX0w-57" value="" style="edgeStyle=orthogonalEdgeStyle;rounded=0;orthogonalLoop=1;jettySize=auto;html=1;dashed=1;dashPattern=8 8;endArrow=none;endFill=0;" parent="1" source="Rp-L3tJBkFsfCjt6rX0w-17" target="Rp-L3tJBkFsfCjt6rX0w-28" edge="1">
                    <mxGeometry relative="1" as="geometry">
                        <mxPoint x="-390" y="-1200" as="targetPoint"/>
                        <mxPoint x="-390" y="-1250" as="sourcePoint"/>
                        <Array as="points">
                            <mxPoint x="-120" y="-1220"/>
                            <mxPoint x="-120" y="-1220"/>
                        </Array>
                    </mxGeometry>
                </mxCell>
                <mxCell id="Rp-L3tJBkFsfCjt6rX0w-58" value="" style="edgeStyle=orthogonalEdgeStyle;rounded=0;orthogonalLoop=1;jettySize=auto;html=1;dashed=1;dashPattern=8 8;endArrow=none;endFill=0;" parent="1" source="Rp-L3tJBkFsfCjt6rX0w-28" target="Rp-L3tJBkFsfCjt6rX0w-47" edge="1">
                    <mxGeometry relative="1" as="geometry">
                        <mxPoint x="-380" y="-1190" as="targetPoint"/>
                        <mxPoint x="-380" y="-1240" as="sourcePoint"/>
                        <Array as="points">
                            <mxPoint x="-120" y="-1090"/>
                            <mxPoint x="-120" y="-1090"/>
                        </Array>
                    </mxGeometry>
                </mxCell>
                <mxCell id="2" value="Alt" style="text;html=1;strokeColor=none;fillColor=none;align=center;verticalAlign=middle;whiteSpace=wrap;rounded=0;" vertex="1" parent="1">
                    <mxGeometry x="-730" y="-1140" width="60" height="30" as="geometry"/>
                </mxCell>
                <mxCell id="3" value="Else" style="text;html=1;strokeColor=none;fillColor=none;align=center;verticalAlign=middle;whiteSpace=wrap;rounded=0;" vertex="1" parent="1">
                    <mxGeometry x="-730" y="-1100" width="60" height="30" as="geometry"/>
                </mxCell>
            </root>
        </mxGraphModel>
    </diagram>
</mxfile>